<?xml version="1.0" standalone="no"?>
<!DOCTYPE svg PUBLIC "-//W3C//DTD SVG 20010904//EN"
 "http://www.w3.org/TR/2001/REC-SVG-20010904/DTD/svg10.dtd">
<svg version="1.0" xmlns="http://www.w3.org/2000/svg"
 width="234.000000pt" height="234.000000pt" viewBox="0 0 234.000000 234.000000"
 preserveAspectRatio="xMidYMid meet">
<metadata>
Created by potrace 1.14, written by Peter Selinger 2001-2017
</metadata>
<g transform="translate(0.000000,234.000000) scale(0.100000,-0.100000)"
fill="#000000" stroke="none">
<path d="M1105 2172 c0 -45 3 -58 16 -58 12 0 15 12 15 58 -1 45 -4 58 -16 58
-12 0 -15 -13 -15 -58z"/>
<path d="M1160 2220 c0 -5 5 -10 10 -10 6 0 10 5 10 10 0 6 -4 10 -10 10 -5 0
-10 -4 -10 -10z"/>
<path d="M1195 2172 c0 -45 4 -58 15 -59 12 -1 15 12 16 58 0 47 -2 59 -15 59
-13 0 -16 -12 -16 -58z"/>
<path d="M1245 2220 c3 -5 8 -10 11 -10 2 0 4 5 4 10 0 6 -5 10 -11 10 -5 0
-7 -4 -4 -10z"/>
<path d="M1288 2218 c6 -6 6 -24 1 -46 -12 -53 -11 -59 9 -64 15 -4 18 -1 14
17 -2 12 1 38 6 58 9 33 8 35 -15 40 -15 3 -21 1 -15 -5z"/>
<path d="M980 2190 c10 -36 10 -34 10 -65 0 -15 6 -25 15 -25 11 0 13 8 8 33
l-6 32 31 -29 c17 -15 35 -25 41 -21 8 4 3 13 -11 25 -17 14 -20 21 -12 30 17
18 5 50 -19 50 -16 0 -18 -3 -9 -12 17 -17 15 -38 -3 -38 -13 0 -20 18 -16 43
0 4 -8 7 -18 7 -17 0 -18 -4 -11 -30z"/>
<path d="M1368 2198 c5 -7 12 -31 16 -53 3 -22 6 -42 6 -45 0 -3 15 11 31 30
l31 35 -7 -35 c-4 -19 -12 -38 -17 -41 -5 -4 2 -9 16 -11 14 -3 24 -2 21 1 -4
8 8 65 20 94 13 31 -28 19 -52 -16 -13 -17 -24 -26 -24 -19 -1 6 -3 17 -4 22
-1 6 -3 19 -4 30 -1 13 -8 20 -22 20 -16 0 -19 -3 -11 -12z"/>
<path d="M881 2168 c1 -26 -9 -77 -18 -91 -3 -6 -1 -7 5 -3 7 4 12 14 12 22 0
8 6 14 13 14 9 0 9 2 0 8 -7 4 -9 13 -4 21 6 10 13 5 27 -18 10 -17 21 -31 24
-31 10 0 35 20 25 20 -5 0 -23 18 -39 40 -34 45 -46 50 -45 18z"/>
<path d="M780 2160 c-10 -7 -11 -13 -4 -17 12 -9 40 -74 36 -86 -1 -4 7 -3 18
3 19 10 19 11 0 43 -11 17 -20 40 -20 50 0 19 -8 21 -30 7z"/>
<path d="M1523 2164 c6 -7 -22 -86 -34 -94 -4 -3 10 -13 31 -22 30 -12 41 -13
49 -4 7 9 3 12 -17 11 -22 0 -26 4 -24 20 5 27 11 32 21 16 6 -10 10 -9 15 4
9 23 8 25 -9 19 -17 -7 -19 4 -5 26 7 12 12 12 29 -4 13 -12 21 -14 21 -7 0 7
-16 19 -35 27 -36 15 -52 18 -42 8z"/>
<path d="M697 2133 c-11 -10 -8 -23 4 -23 6 0 24 -13 39 -30 31 -34 40 -37 40
-15 0 8 -15 29 -32 45 -35 31 -41 34 -51 23z"/>
<path d="M771 2114 c0 -11 3 -14 6 -6 3 7 2 16 -1 19 -3 4 -6 -2 -5 -13z"/>
<path d="M1345 2110 c-3 -5 -1 -10 4 -10 6 0 11 5 11 10 0 6 -2 10 -4 10 -3 0
-8 -4 -11 -10z"/>
<path d="M590 2072 c-28 -9 -50 -35 -50 -59 0 -29 33 -63 61 -63 19 0 18 3
-11 30 -40 38 -39 75 3 75 15 -1 27 2 27 7 0 11 -14 16 -30 10z"/>
<path d="M1657 2046 c-27 -19 -43 -37 -37 -41 5 -3 13 1 16 9 5 12 10 13 26 5
11 -6 17 -17 14 -24 -2 -7 2 -19 10 -25 11 -10 14 -9 14 4 0 9 1 19 2 24 9 39
14 82 9 82 -3 0 -28 -15 -54 -34z m27 -11 c-4 -8 -10 -12 -15 -9 -11 6 -2 24
11 24 5 0 7 -7 4 -15z"/>
<path d="M1040 2058 c-24 -9 -26 -40 -4 -59 12 -10 15 -28 12 -78 l-3 -66 38
-1 c21 -1 40 3 43 7 3 5 14 5 24 -1 13 -7 21 -7 25 0 4 6 13 7 23 1 9 -5 32
-11 51 -12 27 -3 35 0 42 18 5 13 4 25 -2 28 -14 9 0 88 17 98 20 12 17 45 -5
57 -11 5 -35 10 -53 10 -28 0 -36 -6 -57 -42 l-24 -42 -22 44 c-19 37 -27 44
-53 45 -17 0 -40 -3 -52 -7z"/>
<path d="M723 2042 c0 -12 5 -22 9 -22 11 0 10 12 -2 30 -7 12 -9 10 -7 -8z"/>
<path d="M631 2021 c-12 -8 -12 -12 -2 -25 7 -8 9 -21 5 -28 -4 -7 1 -5 11 4
23 21 10 64 -14 49z"/>
<path d="M875 2013 c-33 -8 -103 -42 -110 -53 -9 -15 4 -50 19 -50 17 0 46
-63 40 -87 -3 -11 1 -27 10 -36 14 -14 21 -13 70 14 29 16 59 36 66 44 17 21
16 62 -4 84 -9 9 -16 27 -16 39 0 18 -35 54 -50 51 -3 -1 -14 -4 -25 -6z m15
-67 c0 -11 -19 -15 -25 -6 -3 5 1 10 9 10 9 0 16 -2 16 -4z m30 -65 c0 -5 -7
-11 -15 -15 -15 -5 -20 5 -8 17 9 10 23 9 23 -2z"/>
<path d="M1750 2000 c-11 -11 -20 -25 -20 -31 0 -34 52 -80 66 -57 4 6 3 8 -4
4 -16 -10 -41 21 -35 44 8 32 49 56 68 40 8 -7 15 -20 15 -28 0 -12 3 -13 11
-5 8 8 5 17 -10 32 -26 26 -65 27 -91 1z"/>
<path d="M1432 1998 c-7 -7 -12 -21 -12 -32 0 -24 -57 -89 -70 -81 -12 7 -33
-32 -25 -45 7 -11 70 -40 86 -40 5 0 14 12 20 28 6 15 13 22 16 15 2 -7 -1
-21 -6 -32 -10 -17 -6 -24 26 -46 21 -14 43 -25 50 -25 19 0 33 33 22 52 -14
25 -6 93 14 112 28 28 20 41 -42 75 -68 36 -63 35 -79 19z"/>
<path d="M462 1957 c2 -12 9 -21 16 -19 7 1 15 -5 18 -13 3 -8 11 -12 16 -9 6
4 14 0 19 -7 7 -12 11 -12 23 1 12 13 7 18 -41 42 -54 26 -54 26 -51 5z"/>
<path d="M400 1935 c0 -5 10 -21 21 -35 13 -17 17 -18 10 -5 -17 33 -31 51
-31 40z"/>
<path d="M1890 1915 c-14 -8 -20 -14 -13 -15 7 0 10 -7 6 -16 -6 -15 -7 -15
-18 -1 -12 16 -55 13 -55 -4 0 -12 17 -11 25 1 5 8 11 7 21 -1 17 -14 18 -39
2 -39 -6 0 -3 -6 7 -14 18 -13 20 -10 37 37 22 62 20 70 -12 52z"/>
<path d="M479 1899 c5 -15 7 -30 4 -33 -4 -3 -1 -6 6 -6 13 0 6 37 -11 55 -5
6 -5 -1 1 -16z"/>
<path d="M617 1878 c-18 -18 -36 -33 -40 -33 -13 0 -57 -46 -57 -60 0 -7 -9
-15 -20 -18 -12 -3 -29 -24 -41 -51 -11 -25 -24 -46 -29 -46 -11 0 -50 -73
-50 -94 0 -7 -7 -16 -14 -19 -22 -9 -48 -66 -43 -93 3 -16 0 -24 -9 -24 -15 0
-25 -31 -29 -83 -1 -18 -5 -40 -10 -50 -4 -10 -5 -36 -1 -57 3 -22 2 -40 -2
-40 -10 0 -9 -124 2 -192 5 -25 17 -56 27 -67 12 -13 15 -22 8 -27 -13 -8 -4
-50 19 -84 9 -14 18 -36 19 -49 3 -30 46 -96 77 -116 13 -9 23 -24 21 -33 -7
-48 110 -162 169 -164 29 -1 34 -4 25 -15 -9 -10 -7 -18 7 -35 23 -26 100 -61
115 -52 6 3 19 -3 30 -15 11 -12 26 -21 34 -21 7 0 15 -5 17 -11 6 -18 103
-48 122 -37 12 7 16 5 16 -6 0 -12 14 -9 68 15 37 17 76 39 88 50 21 20 44 25
44 10 0 -4 28 -23 63 -41 34 -18 70 -39 79 -47 21 -19 38 -9 38 23 l0 25 26
-20 c32 -25 40 -26 78 -6 15 8 39 15 51 15 18 0 22 4 18 20 -4 16 -2 19 11 14
9 -3 22 -2 29 4 6 5 30 13 51 16 29 6 54 22 98 67 33 32 72 66 88 75 15 10 40
37 55 61 16 23 32 43 36 43 5 0 9 7 9 16 0 9 16 34 35 55 43 48 82 122 66 127
-6 2 -1 16 13 35 27 36 42 92 28 101 -6 3 -1 24 11 47 23 47 36 181 19 202 -5
7 -8 33 -6 59 2 32 -1 52 -11 61 -8 8 -11 17 -8 20 13 13 4 92 -12 103 -9 7
-15 18 -14 26 6 27 -12 88 -29 100 -10 7 -23 32 -30 56 -7 23 -22 48 -32 55
-11 6 -20 18 -20 25 0 17 -38 72 -50 72 -5 0 -11 -8 -13 -17 -4 -14 -5 -13 -6
4 -2 36 -22 70 -50 84 -14 8 -38 26 -53 41 -35 37 -61 38 -52 2 6 -23 5 -25
-12 -16 -28 14 -89 21 -104 12 -10 -6 -9 -14 6 -39 10 -17 22 -31 26 -31 4 0
8 -5 8 -11 0 -6 -9 -8 -20 -4 -32 10 -25 -23 13 -59 17 -17 43 -48 57 -69 14
-20 33 -40 43 -43 11 -3 17 -15 17 -33 0 -15 8 -36 18 -47 10 -11 17 -25 15
-31 -2 -6 4 -28 13 -50 21 -47 28 -121 21 -213 -2 -25 0 -54 4 -65 4 -13 1
-28 -7 -40 -8 -10 -14 -31 -14 -46 0 -15 -9 -46 -20 -70 -11 -24 -20 -56 -20
-71 0 -16 -6 -28 -13 -28 -7 0 -28 -27 -47 -60 -19 -33 -38 -60 -43 -60 -6 0
-28 -19 -49 -42 -22 -24 -36 -35 -33 -26 4 9 2 19 -3 22 -17 10 -110 -44 -132
-77 l-21 -32 4 30 c2 17 8 38 12 48 6 14 2 17 -24 17 -45 0 -94 -23 -121 -56
-17 -22 -24 -25 -28 -15 -3 8 -15 25 -28 38 -22 22 -23 23 -3 23 24 0 75 33
104 67 11 14 44 33 74 43 l53 18 14 -34 c8 -18 14 -38 14 -43 0 -5 8 -8 18 -6
9 2 20 4 24 4 8 1 -5 49 -22 81 -10 19 -9 24 12 38 12 8 48 40 78 71 30 31 59
56 65 56 9 0 24 38 39 98 8 35 -2 34 -64 -4 -33 -20 -49 -36 -46 -45 6 -16
-50 -83 -97 -116 -17 -12 -46 -22 -66 -23 -20 -2 -45 -5 -57 -8 -24 -6 -93 22
-113 46 -20 25 -21 96 -2 101 52 15 98 19 194 17 75 -1 107 2 107 10 0 7 7 17
15 23 8 6 21 46 29 91 7 44 23 108 35 142 12 34 21 72 21 83 0 22 19 27 38 8
18 -18 26 16 10 45 -14 26 -70 77 -105 96 -12 6 -36 11 -53 11 -17 0 -40 5
-51 10 -16 9 -21 7 -28 -12 -8 -20 -10 -21 -16 -6 -6 15 -21 17 -98 17 -121
-1 -117 -2 -117 20 0 23 22 28 123 26 74 -2 78 -1 75 19 -3 19 -8 20 -93 17
-49 -1 -93 -5 -96 -7 -12 -7 -17 48 -8 79 10 35 -4 67 -30 67 -21 0 -79 -63
-98 -107 -9 -23 -20 -33 -36 -34 -12 -1 -42 -2 -67 -3 -33 -1 -45 -5 -45 -16
0 -12 16 -16 71 -18 62 -2 73 -6 77 -22 6 -22 5 -22 -88 -22 -30 0 -57 -5 -66
-14 -15 -13 -17 -13 -23 1 -3 9 -10 14 -14 11 -4 -3 -29 -7 -54 -10 -65 -8
-77 -14 -130 -65 -46 -44 -61 -82 -38 -96 6 -3 10 -1 10 4 0 6 6 11 13 11 8 0
14 -6 14 -12 0 -7 12 -52 27 -100 14 -47 28 -106 30 -130 3 -23 10 -56 17 -73
7 -16 13 -34 13 -40 1 -10 14 -10 128 1 37 3 75 4 83 0 14 -5 14 -9 0 -37 -9
-17 -19 -55 -22 -84 l-6 -53 -33 4 c-71 9 -210 124 -183 151 8 8 -3 20 -34 42
-58 39 -78 40 -73 4 9 -71 19 -101 30 -97 7 3 30 -17 52 -44 47 -60 130 -115
212 -143 38 -13 63 -27 67 -39 7 -23 78 -70 107 -70 22 -1 21 -2 -5 -16 -15
-8 -32 -27 -38 -41 l-10 -26 -15 21 c-8 12 -23 26 -33 31 -28 16 -128 24 -136
11 -4 -7 -23 -1 -55 16 -26 14 -53 23 -58 20 -6 -4 -23 9 -38 29 -14 19 -34
35 -43 35 -10 0 -22 14 -30 35 -6 19 -23 43 -36 53 -13 10 -29 38 -35 62 -7
25 -18 53 -26 64 -8 11 -14 37 -14 56 0 20 -6 45 -14 55 -10 14 -11 25 -4 38
5 11 12 53 14 96 7 110 9 123 23 156 7 17 14 37 15 45 1 8 14 34 30 57 15 23
25 46 22 51 -3 6 5 17 18 26 14 8 30 30 36 48 7 18 30 45 52 61 43 31 46 54 5
49 l-27 -3 25 50 c40 79 33 86 -48 47 l-49 -24 7 34 c8 44 -7 44 -48 2z m557
-284 c9 -3 16 -15 16 -26 0 -10 4 -17 10 -13 5 3 7 12 3 20 -3 8 0 16 6 16 6
1 17 2 24 3 6 1 22 -1 34 -5 12 -5 23 -4 25 1 6 17 48 -2 48 -21 0 -11 4 -19
8 -19 5 0 8 10 8 23 -1 17 5 23 25 25 32 4 44 -20 21 -41 -17 -15 -35 -18 -87
-16 -40 1 -86 0 -233 -4 -92 -3 -125 -1 -133 9 -6 7 -7 19 -3 25 5 9 10 7 15
-7 7 -17 8 -17 8 4 1 14 6 22 14 19 6 -2 12 -11 11 -19 -1 -8 5 -15 13 -15 8
0 11 7 7 19 -4 15 0 18 31 18 29 0 36 -3 32 -15 -4 -8 -2 -17 3 -20 6 -4 10 3
10 14 0 25 47 39 84 25z m335 -139 c22 -72 33 -197 20 -231 -6 -15 -13 -6 -37
46 -34 75 -47 156 -37 236 6 50 8 54 20 37 7 -10 23 -50 34 -88z m-611 73 c1
-13 4 -41 6 -62 4 -46 -16 -138 -46 -207 -25 -60 -36 -50 -32 29 8 121 21 180
54 241 14 26 15 26 18 -1z m235 -354 c48 -12 65 -13 95 -3 51 18 55 18 162 24
l95 6 -1 -38 -1 -38 -64 -2 c-101 -3 -163 -12 -205 -29 -34 -14 -41 -14 -64
-1 -37 22 -119 35 -210 32 -44 -1 -80 2 -80 7 0 5 5 6 12 2 8 -5 9 3 5 31 l-6
38 102 -7 c56 -4 128 -14 160 -22z"/>
<path d="M1150 1570 c0 -11 4 -20 9 -20 5 0 7 9 4 20 -3 11 -7 20 -9 20 -2 0
-4 -9 -4 -20z"/>
<path d="M1370 1578 c0 -9 5 -20 10 -23 13 -8 13 5 0 25 -8 13 -10 13 -10 -2z"/>
<path d="M1030 1571 c0 -6 4 -12 8 -15 5 -3 9 1 9 9 0 8 -4 15 -9 15 -4 0 -8
-4 -8 -9z"/>
<path d="M1110 1565 c0 -8 5 -15 10 -15 6 0 10 7 10 15 0 8 -4 15 -10 15 -5 0
-10 -7 -10 -15z"/>
<path d="M1230 1576 c0 -2 7 -9 15 -16 9 -7 15 -8 15 -2 0 5 -7 12 -15 16 -8
3 -15 4 -15 2z"/>
<path d="M1303 1565 c0 -8 4 -15 9 -15 4 0 8 4 8 9 0 6 -4 12 -8 15 -5 3 -9
-1 -9 -9z"/>
<path d="M1275 1560 c3 -5 8 -10 11 -10 2 0 4 5 4 10 0 6 -5 10 -11 10 -5 0
-7 -4 -4 -10z"/>
<path d="M892 1170 c7 -23 38 -25 37 -3 0 11 -3 13 -6 5 -4 -10 -8 -10 -21 0
-13 11 -14 11 -10 -2z"/>
<path d="M955 1171 c-3 -5 -1 -12 5 -16 5 -3 10 1 10 9 0 18 -6 21 -15 7z"/>
<path d="M982 1160 c0 -14 2 -19 5 -12 2 6 2 18 0 25 -3 6 -5 1 -5 -13z"/>
<path d="M1410 1172 c0 -12 19 -26 26 -19 2 2 -2 10 -11 17 -9 8 -15 8 -15 2z"/>
<path d="M1022 1156 c7 -8 15 -12 17 -11 5 6 -10 25 -20 25 -5 0 -4 -6 3 -14z"/>
<path d="M1065 1159 c-4 -6 -5 -12 -2 -15 2 -3 7 2 10 11 7 17 1 20 -8 4z"/>
<path d="M1274 1156 c-3 -8 -11 -14 -17 -12 -7 1 -9 1 -4 -1 4 -3 5 -9 2 -14
-4 -5 1 -6 8 -3 8 3 17 14 20 25 6 22 -1 26 -9 5z"/>
<path d="M1312 1150 c0 -14 2 -19 5 -12 2 6 2 18 0 25 -3 6 -5 1 -5 -13z"/>
<path d="M1330 1153 c0 -15 2 -16 10 -3 9 13 11 13 20 0 8 -13 10 -12 10 3 0
10 -8 17 -20 17 -12 0 -20 -7 -20 -17z"/>
<path d="M1391 1154 c0 -11 3 -14 6 -6 3 7 2 16 -1 19 -3 4 -6 -2 -5 -13z"/>
<path d="M1456 1155 c4 -8 8 -15 10 -15 2 0 4 7 4 15 0 8 -4 15 -10 15 -5 0
-7 -7 -4 -15z"/>
<path d="M1085 1149 c-4 -6 -5 -12 -2 -15 2 -3 7 2 10 11 7 17 1 20 -8 4z"/>
<path d="M1105 1140 c-3 -5 1 -10 10 -10 9 0 13 5 10 10 -3 6 -8 10 -10 10 -2
0 -7 -4 -10 -10z"/>
<path d="M1220 1141 c0 -6 -9 -8 -19 -6 -14 3 -18 -1 -14 -11 6 -16 19 -18 28
-4 4 6 11 8 16 5 5 -3 6 1 3 9 -7 18 -14 21 -14 7z"/>
<path d="M1136 1125 c-3 -8 -1 -15 4 -15 6 0 10 7 10 15 0 8 -2 15 -4 15 -2 0
-6 -7 -10 -15z"/>
<path d="M361 1886 c-8 -10 -5 -15 12 -23 46 -22 80 -34 84 -30 9 9 -10 37
-26 37 -9 0 -26 7 -38 15 -17 12 -23 12 -32 1z"/>
<path d="M1955 1840 c-16 -17 -37 -32 -47 -36 -17 -5 -16 -8 11 -35 35 -33 48
-35 79 -13 27 19 29 57 3 89 l-18 24 -28 -29z m46 -39 c-15 -27 -48 -44 -69
-36 -13 5 -9 12 23 40 41 35 65 33 46 -4z"/>
<path d="M320 1845 c-15 -19 -18 -16 48 -43 l53 -21 -7 22 c-3 12 -11 27 -17
32 -7 7 -8 6 -3 -2 4 -7 4 -13 1 -13 -11 0 -50 22 -56 32 -3 5 -12 2 -19 -7z"/>
<path d="M273 1787 c-3 -6 4 -18 18 -26 13 -9 34 -25 45 -37 19 -18 22 -19 31
-5 7 13 -1 23 -39 48 -31 20 -50 28 -55 20z"/>
<path d="M2048 1750 c-10 -9 -30 -23 -45 -30 -16 -8 -30 -15 -31 -16 -2 -2 7
-18 20 -38 16 -23 28 -32 37 -27 9 6 7 10 -8 14 -22 6 -28 31 -10 43 6 3 15 0
20 -7 7 -12 11 -11 26 4 17 17 17 18 1 11 -10 -3 -18 -2 -18 4 0 13 29 24 42
16 5 -3 8 -15 5 -25 -3 -11 -1 -17 4 -13 13 8 11 20 -8 52 -17 27 -19 28 -35
12z"/>
<path d="M318 1694 c6 -12 8 -25 4 -30 -4 -5 0 -3 8 4 12 10 12 15 -4 30 -18
16 -18 16 -8 -4z"/>
<path d="M212 1688 c-9 -9 1 -19 40 -41 40 -23 52 -26 59 -16 6 10 2 16 -12
21 -12 5 -33 17 -48 28 -21 14 -31 16 -39 8z"/>
<path d="M2111 1638 c-5 -13 -18 -32 -30 -42 -28 -26 -26 -36 7 -35 15 0 21 3
14 6 -9 3 -5 12 13 30 26 27 32 48 15 58 -6 3 -14 -4 -19 -17z"/>
<path d="M2060 1620 c-9 -6 -10 -10 -3 -10 6 0 15 5 18 10 8 12 4 12 -15 0z"/>
<path d="M170 1590 c0 -4 10 -15 22 -26 12 -10 18 -13 14 -6 -5 7 -1 12 9 12
12 0 15 -5 11 -16 -6 -16 12 -60 21 -50 3 3 1 12 -6 19 -16 20 -3 50 20 44 14
-4 29 10 29 26 0 1 -27 3 -60 3 -33 1 -60 -2 -60 -6z"/>
<path d="M2147 1567 c4 -7 0 -8 -11 -4 -9 4 -15 3 -12 -2 3 -5 -8 -14 -25 -21
-16 -7 -28 -17 -27 -22 5 -13 15 -11 65 10 46 18 55 36 23 45 -13 3 -18 1 -13
-6z"/>
<path d="M122 1485 c-7 -14 -12 -30 -12 -34 0 -10 100 -44 107 -37 3 3 6 22 7
43 1 35 -1 38 -26 36 -16 -1 -28 2 -28 8 0 20 -37 8 -48 -16z m74 -17 c17 2
24 -2 24 -12 0 -16 -31 -22 -44 -8 -8 7 -13 8 -42 11 -14 1 -14 4 -4 16 10 12
16 13 28 3 8 -7 25 -11 38 -10z"/>
<path d="M2165 1480 c-16 -16 -37 -30 -47 -30 -17 0 -25 -20 -12 -33 7 -7 37
9 75 38 17 14 24 27 20 38 -6 15 -10 14 -36 -13z"/>
<path d="M2178 1423 c7 -3 16 -2 19 1 4 3 -2 6 -13 5 -11 0 -14 -3 -6 -6z"/>
<path d="M2210 1420 c0 -5 5 -10 11 -10 5 0 7 5 4 10 -3 6 -8 10 -11 10 -2 0
-4 -4 -4 -10z"/>
<path d="M128 1346 c-8 -19 -19 -26 -40 -26 l-29 0 26 -23 c23 -19 25 -25 16
-50 l-11 -28 30 18 c23 13 32 15 42 5 22 -22 39 -15 28 13 -8 20 -5 27 17 45
16 12 20 20 12 21 -8 1 -18 2 -24 4 -5 1 -16 3 -22 3 -7 1 -13 8 -13 16 0 27
-20 27 -32 2z"/>
<path d="M2180 1345 c-11 -20 -20 -25 -37 -22 -28 5 -29 -1 -2 -29 17 -18 19
-26 10 -43 -13 -24 -2 -28 30 -10 15 8 26 7 43 -4 21 -15 22 -14 18 14 -3 19
2 37 13 49 17 19 17 20 -3 20 -11 0 -29 12 -39 26 l-19 25 -14 -26z"/>
<path d="M2127 1163 c-4 -3 -7 -13 -7 -22 1 -13 3 -13 11 2 11 19 8 33 -4 20z"/>
<path d="M2208 1163 c21 -8 15 -49 -9 -50 -14 -1 -19 3 -15 13 4 9 -2 14 -17
14 -16 0 -18 -3 -8 -9 17 -11 -3 -25 -24 -17 -10 3 -15 -1 -15 -12 0 -14 10
-17 55 -17 l55 0 0 43 c0 34 -3 42 -17 41 -11 0 -13 -3 -5 -6z"/>
<path d="M110 1138 c0 -11 6 -16 20 -13 29 6 33 -10 6 -25 -14 -7 -27 -21 -29
-31 -7 -25 0 -24 39 6 l32 25 17 -26 c9 -14 19 -23 23 -20 3 4 -7 20 -23 36
l-29 30 30 0 c20 0 31 5 31 14 0 10 -17 15 -59 18 -49 2 -58 0 -58 -14z"/>
<path d="M2120 1060 c0 -5 4 -10 9 -10 6 0 13 5 16 10 3 6 -1 10 -9 10 -9 0
-16 -4 -16 -10z"/>
<path d="M207 1033 c-4 -7 -13 -11 -20 -9 -7 1 -8 1 -4 -2 5 -2 -8 -22 -29
-43 l-38 -39 40 2 c21 1 33 3 26 6 -10 3 -6 12 13 32 15 16 25 36 23 47 -2 12
-6 14 -11 6z"/>
<path d="M2111 1024 c-1 -24 38 -64 62 -64 24 0 57 36 56 63 l0 22 -9 -23
c-17 -42 -77 -42 -98 0 -10 22 -11 22 -11 2z"/>
<path d="M110 1019 c0 -5 5 -7 10 -4 6 3 10 8 10 11 0 2 -4 4 -10 4 -5 0 -10
-5 -10 -11z"/>
<path d="M210 955 c-11 -13 -10 -14 4 -9 9 3 16 10 16 15 0 13 -6 11 -20 -6z"/>
<path d="M2100 952 c0 -5 7 -9 15 -9 8 0 12 4 9 9 -3 4 -9 8 -15 8 -5 0 -9 -4
-9 -8z"/>
<path d="M2150 941 c8 -6 12 -11 10 -13 -3 -2 -18 -10 -35 -18 -16 -9 -31 -23
-33 -33 -3 -14 7 -11 57 15 63 35 65 41 16 52 -21 5 -26 4 -15 -3z"/>
<path d="M150 910 c-24 -24 -25 -48 -4 -78 30 -43 104 -16 104 37 0 12 -2 12
-12 -2 -29 -38 -98 -39 -98 -1 0 18 47 37 77 31 28 -5 30 9 4 23 -29 15 -49
12 -71 -10z"/>
<path d="M2160 860 c8 -5 22 -9 30 -9 10 0 8 3 -5 9 -27 12 -43 12 -25 0z"/>
<path d="M2076 834 c-6 -15 -4 -15 11 -3 10 7 20 15 22 16 2 2 -3 3 -11 3 -9
0 -19 -7 -22 -16z"/>
<path d="M210 785 c-41 -42 -43 -45 -20 -44 29 1 83 59 71 77 -5 8 -22 -3 -51
-33z"/>
<path d="M2165 820 c3 -5 11 -10 16 -10 6 0 7 5 4 10 -3 6 -11 10 -16 10 -6 0
-7 -4 -4 -10z"/>
<path d="M2110 810 c0 -14 15 -19 29 -11 9 6 7 10 -8 14 -12 3 -21 1 -21 -3z"/>
<path d="M2060 789 c0 -12 3 -20 6 -16 3 3 26 -3 50 -14 l45 -19 9 26 c13 33
12 44 -1 22 -9 -17 -13 -17 -47 -2 -20 9 -43 18 -49 21 -8 3 -13 -3 -13 -18z"/>
<path d="M260 755 c-7 -8 -16 -12 -21 -9 -5 3 -6 -2 -3 -10 3 -9 1 -16 -5 -16
-5 0 -15 -9 -21 -20 -9 -17 -8 -20 14 -18 13 1 23 5 21 9 -3 3 7 17 20 29 25
23 33 50 16 50 -5 0 -14 -7 -21 -15z"/>
<path d="M2128 718 c8 -8 8 -17 1 -30 -10 -18 -12 -18 -55 6 l-44 25 -11 -22
c-7 -12 -8 -19 -4 -15 4 4 29 -4 55 -17 l47 -24 17 35 c16 36 14 54 -7 54 -8
0 -8 -3 1 -12z"/>
<path d="M266 692 c-3 -5 1 -9 9 -9 8 0 12 4 9 9 -3 4 -7 8 -9 8 -2 0 -6 -4
-9 -8z"/>
<path d="M306 686 c3 -8 -9 -22 -33 -37 -21 -12 -40 -24 -41 -25 -2 -1 7 -18
20 -38 16 -23 28 -32 37 -27 9 6 7 10 -8 14 -32 8 -25 33 17 58 20 12 38 24
40 25 5 4 -22 44 -30 44 -4 0 -5 -6 -2 -14z"/>
<path d="M1972 620 c-8 -14 -3 -21 34 -41 24 -13 44 -28 44 -33 0 -5 6 -1 14
9 13 18 11 21 -14 31 -16 7 -37 21 -48 32 -18 18 -20 18 -30 2z"/>
<path d="M2078 613 c3 -18 7 -21 13 -11 12 18 11 25 -4 31 -10 4 -13 -2 -9
-20z"/>
<path d="M348 575 c-16 -13 -35 -28 -45 -33 -15 -9 -14 -13 8 -40 25 -32 43
-39 54 -22 3 5 0 7 -8 4 -22 -8 -42 22 -27 41 13 16 34 10 24 -7 -4 -6 2 -6
15 1 11 7 21 14 21 17 0 3 -4 3 -9 -1 -17 -10 -21 12 -5 26 13 10 17 10 25 -2
5 -8 6 -21 3 -29 -4 -11 -2 -12 6 -4 9 9 9 17 1 31 -20 39 -34 43 -63 18z"/>
<path d="M1897 527 c-61 -66 -66 -80 -41 -115 27 -39 105 -18 103 29 0 8 -4 4
-9 -8 -13 -32 -55 -30 -77 3 -19 30 -8 60 22 57 10 0 14 4 11 13 -8 22 6 17
46 -16 l36 -30 26 31 c14 17 23 36 19 42 -4 6 -10 0 -16 -16 -10 -30 -15 -32
-37 -16 -11 8 -12 12 -2 16 16 6 15 20 -3 27 -8 3 -14 2 -14 -2 3 -19 -2 -23
-16 -12 -21 17 -19 29 7 39 12 4 17 10 12 14 -6 3 -36 -22 -67 -56z"/>
<path d="M430 524 c0 -5 -16 -26 -35 -46 l-35 -36 26 -21 c15 -12 37 -21 50
-21 28 0 58 41 50 68 -7 21 -56 71 -56 56z m32 -68 c-14 -31 -43 -48 -62 -36
-12 7 -8 16 20 45 38 39 62 34 42 -9z"/>
<path d="M498 429 c-46 -26 -41 -85 10 -108 21 -10 28 -9 41 4 14 14 14 17 2
25 -10 6 -19 3 -27 -8 -10 -13 -15 -14 -27 -3 -25 20 8 81 44 81 19 0 43 -33
32 -44 -3 -3 -1 -6 5 -6 20 0 19 25 -2 41 -30 23 -58 30 -78 18z"/>
<path d="M1800 429 c0 -5 5 -7 10 -4 6 3 10 8 10 11 0 2 -4 4 -10 4 -5 0 -10
-5 -10 -11z"/>
<path d="M1747 395 c-15 -11 -13 -13 16 -21 26 -8 33 -15 35 -42 2 -18 7 -32
11 -32 4 0 5 14 3 32 l-5 32 26 -17 c21 -13 27 -14 36 -3 9 10 2 17 -32 31
-23 9 -49 21 -57 25 -9 4 -23 2 -33 -5z"/>
<path d="M604 367 c-4 -12 -15 -34 -25 -49 -11 -14 -19 -28 -19 -30 0 -2 16
-12 35 -22 29 -16 38 -17 48 -7 9 10 8 12 -8 10 -33 -6 -47 9 -33 34 10 19 12
20 17 4 6 -15 7 -15 18 3 11 16 10 18 -2 14 -17 -7 -19 4 -6 25 8 12 12 12 25
2 9 -7 13 -18 9 -24 -3 -6 -1 -7 5 -3 20 12 14 23 -23 44 l-34 21 -7 -22z"/>
<path d="M1706 371 c-3 -5 3 -11 15 -14 16 -4 18 -3 8 9 -13 16 -16 17 -23 5z"/>
<path d="M1664 345 c-10 -8 -14 -15 -8 -15 6 0 19 -18 29 -40 10 -22 22 -40
27 -40 15 0 68 33 68 42 0 14 -18 9 -24 -7 -10 -28 -33 -15 -53 30 -18 42 -21
44 -39 30z"/>
<path d="M1710 321 c0 -5 7 -11 14 -14 10 -4 13 -1 9 9 -6 15 -23 19 -23 5z"/>
<path d="M743 259 l-22 -50 32 -14 c21 -9 38 -10 49 -4 20 11 35 38 32 57 -1
6 -2 16 -3 21 0 5 -7 11 -15 14 -10 4 -12 0 -9 -14 8 -27 -16 -69 -39 -69 -23
0 -23 2 2 51 19 36 20 59 2 59 -4 0 -17 -23 -29 -51z"/>
<path d="M1538 274 l-28 -14 23 -48 c12 -26 22 -48 23 -50 5 -9 74 34 74 47 0
11 -5 9 -20 -7 -26 -27 -36 -28 -43 -1 -4 16 -2 19 10 15 11 -5 14 -2 9 10 -3
8 -6 19 -6 22 0 4 -5 0 -10 -8 -9 -13 -11 -13 -20 0 -5 8 -10 18 -10 23 0 6
24 11 43 8 4 0 7 4 7 9 0 14 -20 12 -52 -6z"/>
<path d="M850 215 c-7 -25 -18 -45 -24 -45 -11 0 14 -20 26 -20 3 0 12 17 19
38 6 20 16 42 21 48 7 10 -9 24 -27 24 -1 0 -8 -20 -15 -45z"/>
<path d="M1487 230 c3 -11 7 -20 9 -20 2 0 4 9 4 20 0 11 -4 20 -9 20 -5 0 -7
-9 -4 -20z"/>
<path d="M906 225 c-7 -18 5 -45 29 -65 12 -10 13 -15 4 -21 -17 -10 -39 0
-39 18 0 8 -5 11 -12 7 -17 -11 29 -45 50 -37 38 14 40 36 7 65 -14 12 -25 25
-25 30 0 15 29 8 38 -8 7 -12 11 -13 17 -5 9 16 5 20 -32 27 -23 4 -32 2 -37
-11z"/>
<path d="M1412 211 c7 -11 15 -18 19 -15 4 2 23 -8 44 -22 42 -28 50 -27 36 7
-5 13 -10 20 -10 16 -1 -5 -14 1 -30 12 -16 12 -39 21 -50 21 -18 0 -20 -3 -9
-19z"/>
<path d="M1002 204 c-44 -30 -16 -104 40 -104 9 0 19 4 22 9 4 5 -4 7 -15 4
-47 -13 -59 62 -16 92 15 11 17 15 6 15 -8 0 -25 -7 -37 -16z"/>
<path d="M1364 165 c8 -42 14 -55 26 -52 8 2 13 10 11 18 -2 8 -6 31 -9 52 -3
26 -9 37 -21 37 -15 0 -16 -6 -7 -55z"/>
<path d="M1071 193 c7 -10 15 -20 16 -22 2 -2 3 5 3 17 0 14 -6 22 -16 22 -14
0 -15 -3 -3 -17z"/>
<path d="M1109 183 c-1 -15 -3 -42 -5 -59 -2 -22 1 -31 11 -31 10 0 15 11 16
31 1 17 2 42 3 55 0 13 -5 26 -11 28 -8 3 -13 -6 -14 -24z"/>
<path d="M1165 148 c0 -47 3 -58 16 -58 12 0 15 7 12 24 -4 19 0 25 22 30 20
5 26 12 23 28 -4 29 -29 36 -26 7 2 -12 -3 -24 -11 -27 -10 -3 -13 2 -9 21 3
18 0 27 -11 30 -14 3 -16 -5 -16 -55z"/>
<path d="M1258 205 c-3 -3 -1 -26 3 -51 5 -26 7 -50 4 -55 -3 -4 4 -7 14 -6
15 1 19 6 15 22 -3 11 -6 37 -7 57 -2 34 -14 48 -29 33z"/>
<path d="M1433 142 c0 -12 5 -22 9 -22 11 0 10 12 -2 30 -7 12 -9 10 -7 -8z"/>
<path d="M1340 121 c0 -5 -8 -12 -17 -14 -14 -4 -12 -5 5 -6 13 -1 22 5 22 14
0 8 -2 15 -5 15 -3 0 -5 -4 -5 -9z"/>
</g>
</svg>
