<svg width="16" height="16" viewBox="0 0 16 16" fill="none" xmlns="http://www.w3.org/2000/svg">
<mask id="mask0_780:519" style="mask-type:alpha" maskUnits="userSpaceOnUse" x="0" y="0" width="16" height="16">
<path d="M8 16C12.4183 16 16 12.4183 16 8C16 7.41157 15.9365 6.83798 15.8159 6.28571H8V9.6H12.4054C11.7516 11.4 10.0259 12.6857 8 12.6857C5.41215 12.6857 3.31429 10.5878 3.31429 8C3.31429 5.41215 5.41215 3.31429 8 3.31429C9.31909 3.31429 10.5109 3.85935 11.3624 4.73654L13.6945 2.38108C12.2439 0.911091 10.2284 0 8 0C3.58172 0 0 3.58172 0 8C0 12.4183 3.58172 16 8 16Z" fill="#C4C4C4"/>
</mask>
<g mask="url(#mask0_780:519)">
<path d="M-5.14258 8.0293L0.000278782 3.65732L5.71456 8.11446L0.000279161 12.343L-5.14258 8.0293Z" fill="#FEBD01"/>
<path d="M0 3.65723L6.45714 -2.79992L13.4286 -0.285631L16.4571 5.0858L7.82857 5.42865L5.71429 8.11437L0 3.65723Z" fill="#FF4131"/>
<path d="M7.6582 5.94342L16.9153 5.71484L16.8011 9.82913L14.5153 14.7434L9.82963 11.0863L7.6582 10.0577V5.94342Z" fill="#0286F7"/>
<path d="M0 12.3428L5.71429 8.11426L6.34286 10.9714L9.82857 11.0857L14.5143 14.7428L9.77143 16.8L3.88571 16.4571L0 12.3428Z" fill="#01A94D"/>
</g>
</svg>
